<svg xmlns="http://www.w3.org/2000/svg" width="1500" height="600">
    <rect width="1500" height="600" x="0" y="0" fill="none" id="backgorund"/>
    <g id="viz">
        <clipPath id="serieClipPath">
            <rect x="-50" y="-10" width="1500" height="600"/>
        </clipPath>
        <g transform="translate(0,0)">
            <g transform="translate(50,10)" clip-path="url(#serieClipPath)">
                <g id="viz">
                    <g>
                        <path d="M27.350658461538462,568.84005L33.07299692307692,568.726905L38.99402769230769,568.814115L44.71636615384616,568.885365L50.62944923076923,568.73574L56.542532307692305,568.77336L62.07412615384615,568.567875L67.98720923076922,568.49463L73.7016,568.5351L79.61468307692307,568.2597900000001L85.33702153846154,568.28829L91.2501046153846,568.2096300000001L97.16318769230769,568.001295L102.88552615384614,567.2925L108.80655692307691,566.459445L114.5288953846154,566.5418099999999L120.44197846153845,566.035935L126.35506153846154,565.3750200000001L131.69591076923078,565.408365L137.60899384615385,565.4756249999999L143.3233846153846,565.833015L149.23646769230768,565.851255L154.95880615384615,565.48275L160.87188923076923,565.080615L166.7849723076923,564.44649L172.50731076923077,564.098505L178.42834153846155,562.76613L184.15068,562.31925L190.06376307692307,561.2057550000001L195.97684615384617,562.217505L201.3176953846154,562.87614L207.23077846153845,562.66638L212.94516923076924,562.488255L218.8582523076923,563.57724L224.58059076923078,563.014365L230.49367384615385,562.875L236.40675692307693,562.082985L242.1290953846154,561.5925L248.05012615384615,560.5177649999999L253.7724646153846,560.602125L259.6855476923077,560.045235L265.5986307692308,560.75688L270.93948,560.14413L276.8446153846154,559.567005L282.5669538461538,557.56488L288.4800369230769,557.011125L294.2023753846154,554.84199L300.1154584615385,555.785625L306.0285415384615,554.223255L311.75088,550.6485L317.6639630769231,550.38801L323.3942492307692,549.34149L329.3073323076923,549.616515L335.22041538461536,556.09713L340.75200923076926,555.16575L346.6571446153846,551.67849L352.37948307692307,550.432755L358.29256615384617,550.665885L364.0149046153846,551.585865L369.9279876923077,551.63289L375.8410707692308,552.3402600000001L381.56340923076925,558.1522649999999L387.4764923076923,558.6213750000001L393.2067784615384,559.455L399.1198615384615,560.1093599999999L405.0329446153846,559.51599L410.3737938461539,558.805485L416.2789292307692,557.052735L422.0012676923077,556.16724L427.91435076923074,555.09849L433.6366892307692,553.205235L439.5497723076923,552.44286L445.46285538461535,550.7727600000001L451.1851938461538,548.756385L457.0982769230769,548.82849L462.82856307692305,548.222865L468.74164615384615,548.05614L474.6547292307692,549.116625L479.99557846153846,545.8280100000001L485.9007138461538,542.267505L491.62305230769226,542.733765L497.53613538461536,541.60089L503.25847384615383,542.92614L509.1715569230769,543.0999899999999L515.0846399999999,540.000615L520.8069784615384,537.5302350000001L526.7200615384616,537.29625L532.4503476923077,536.75076L538.3634307692308,534.5175L544.2765138461538,532.858515L549.6173630769231,533.18712L555.5224984615385,533.85288L561.244836923077,534.18861L567.15792,534.158115L572.8802584615385,528.82776L578.7933415384615,529.336485L584.7064246153845,526.959015L590.428763076923,526.567995L596.3418461538462,528.4715100000001L602.0721323076923,528.36036L607.9852153846155,523.357755L613.8982984615385,514.261125L619.4298923076923,506.74539L625.3350276923077,504.45L631.0573661538461,509.258235L636.9704492307692,509.94651L642.6927876923078,506.90613L648.6058707692307,500.69712L654.5189538461539,498.233865L660.2412923076922,501.11664L666.1543753846154,508.623255L671.8846615384615,509.47911L677.7977446153847,513.50901L683.7108276923077,520.639995L689.0516769230769,522.165885L694.9568123076923,524.6798699999999L700.6791507692308,522.593385L706.5922338461539,523.74564L712.3145723076923,523.448955L718.2276553846154,517.708485L724.1407384615385,518.301L729.8630769230768,515.1121350000001L735.77616,513.16986L741.5064461538461,511.45929L747.4195292307692,512.979765L753.3326123076922,513.89661L758.6734615384615,514.119765L764.5785969230768,508.98663000000005L770.3009353846154,504.432615L776.2140184615384,502.276875L781.9363569230768,499.149L787.84944,496.68375000000003L793.762523076923,496.08525000000003L799.4848615384616,493.0215L805.3979446153846,484.678125L811.1282307692308,485.034375L817.0413138461538,484.5L822.954396923077,474.81L828.2952461538462,477.17550000000006L834.2003815384616,474.14025000000004L839.92272,475.258875L845.835803076923,476.38462499999997L851.5581415384615,475.258875L857.4712246153846,482.668875L863.3843076923077,486.71587500000004L869.1066461538461,483.63075L875.0197292307691,481.77825L880.7500153846155,484.59975000000003L886.6630984615385,494.58187499999997L892.5761815384616,499.54087499999997L898.1077753846155,491.32574999999997L904.0129107692308,489.922125L909.7352492307693,498.229875L915.6483323076923,497.403375L921.3706707692307,495.508125L927.2837538461539,491.46112500000004L933.196836923077,487.22175L938.9191753846153,485.433375L944.8322584615383,488.938875L950.5625446153847,485.91303L956.4756276923077,482.7615L962.3887107692309,472.0455L967.72956,467.04375L973.6346953846155,466.35975L979.3570338461539,458.38687500000003L985.2701169230769,458.86424999999997L990.9924553846155,460.282125L996.9055384615385,452.7795L1002.8186215384615,452.48025L1008.54096,449.124375L1014.4540430769231,444.429L1020.1843292307692,443.745L1026.0974123076924,441.67875L1032.0104953846153,441.31167L1037.3513446153847,439.25625L1043.25648,442.507815L1048.9788184615386,434.361375L1054.8919015384615,431.6325L1060.6142399999999,430.3785L1066.527323076923,406.930125L1072.4404061538462,406.36012500000004L1078.1627446153848,403.652625L1084.0758276923077,411.5685L1089.806113846154,438.23025L1095.7191969230769,449.58750000000003L1101.63228,444.69262499999996L1106.9731292307692,429.14587500000005L1112.8782646153848,421.458L1118.600603076923,416.59162499999996L1124.513686153846,426.381375L1130.2360246153846,412.273875L1136.1491076923078,414.65362500000003L1142.062190769231,408.67575L1147.7845292307693,392.05312499999997L1153.6976123076922,379.05L1159.4278984615385,360.546375L1165.3409815384614,336.406875L1171.2540646153846,336.85575L1176.7856584615383,353.4L1182.6907938461538,360.147375L1188.4131323076922,338.979L1194.3262153846154,304.67925L1200.048553846154,266.71725L1205.9616369230769,196.64999999999998L1211.87472,176.75700000000003L1217.5970584615384,212.6385L1223.5101415384615,222.3285L1229.2404276923075,174.45135000000005L1235.1535107692307,156.49349999999998L1241.0665938461539,177.05055L1246.407443076923,203.14800000000002L1252.3125784615384,179.35049999999998L1258.034916923077,187.9005L1263.948,178.38150000000005L1269.6703384615384,142.5L1275.5834215384616,132.55349999999996L1281.4965046153845,121.809L1287.2188430769231,133.47975000000002L1293.1319261538463,97.75500000000005L1298.8622123076923,50.929500000000026L1304.7752953846154,48.62100000000002L1310.6883784615386,66.54750000000001L1316.0292276923078,58.11149999999999L1321.934363076923,61.30349999999996L1327.6567015384614,95.53200000000005"
                              stroke="#003860" fill="none"/>
                    </g>
                </g>
            </g>
        </g>
    </g>
</svg>