<svg xmlns="http://www.w3.org/2000/svg" width="1500" height="600">
    <rect width="1500" height="600" x="0" y="0" fill="none" id="backgorund"/>
    <g id="viz">
        <clipPath id="serieClipPath">
            <rect x="-50" y="-10" width="1500" height="600"/>
        </clipPath>
        <g transform="translate(0,0)">
            <g transform="translate(50,10)" clip-path="url(#serieClipPath)">
                <g id="viz">
                    <g>
                        <path d="M28.685870769230768,568.84005L32.69150769230769,568.887645L34.02672,568.78818L35.36193230769231,568.726905L36.697144615384616,568.808985L38.032356923076925,568.77849L39.37551692307692,568.814115L40.71072923076923,568.843755L42.045941538461534,568.91244L43.38115384615384,568.91757L44.71636615384616,568.885365L46.05157846153846,568.913865L47.38679076923077,568.90617L48.72200307692308,568.9358100000001L50.05721538461539,568.89306L51.39242769230769,568.771935L52.72764,568.73574L54.06285230769231,568.83093L55.39806461538462,568.810125L56.73327692307693,568.834065L58.068489230769224,568.77336L59.40370153846153,568.79673L60.73891384615384,568.7773500000001L62.07412615384615,568.6009349999999L63.40933846153847,568.567875L64.74455076923077,568.60806L66.07976307692307,568.60749L67.41497538461539,568.57557L68.75018769230769,568.55619L70.07745230769231,568.49463L71.41266461538461,568.5368100000001L72.74787692307692,568.593525L74.08308923076923,568.596945L75.41830153846153,568.58925L76.75351384615385,568.600365L78.08872615384615,568.5351L79.42393846153846,568.511445L80.75915076923077,568.423665L82.09436307692307,568.29969L83.42957538461539,568.278315L84.76478769230769,568.2597900000001L86.1,568.400865L87.43521230769231,568.28829L88.77042461538461,568.335315L90.10563692307691,568.320495L91.44084923076923,568.35612L92.77606153846153,568.39488L94.11127384615385,568.37835L95.44648615384615,568.2096300000001L96.78169846153845,568.168305L98.11691076923077,568.138665L99.45212307692307,568.097625L100.78733538461539,568.021815L102.12254769230769,568.001295L103.45776,567.916935L104.79297230769231,567.671835L106.12818461538461,567.53931L107.46339692307693,567.2925L108.79860923076923,567.144585L110.14176923076924,567.165675L111.47698153846154,567.103545L112.81219384615383,566.653245L114.14740615384616,566.459445L115.48261846153845,566.60394L116.81783076923078,566.56461L118.15304307692307,566.64099L119.4882553846154,566.68431L120.82346769230769,566.45631L122.15867999999999,566.21235L123.4938923076923,566.35599L124.82910461538461,566.234865L126.16431692307694,565.93305L127.49952923076923,565.827315L128.83474153846154,565.3750200000001L130.16995384615385,565.42404L131.50516615384615,565.405515L132.84037846153848,565.59789L134.17559076923078,565.5785099999999L135.51080307692308,565.52436L136.84601538461538,565.627245L138.1812276923077,565.4756249999999L139.5084923076923,565.49586L140.8437046153846,566.158485L142.1789169230769,566.18214L143.51412923076924,566.20038L144.84934153846154,566.188125L146.18455384615385,566.164755L147.51976615384615,565.833015L148.85497846153845,565.851255L150.19019076923078,566.06814L151.52540307692308,566.07726L152.8606153846154,565.951005L154.1958276923077,566.1220050000001L155.53104,566.103765L156.86625230769232,565.72386L158.20146461538462,565.5172349999999L159.53667692307693,565.48275L160.87188923076923,565.57224L162.20710153846153,565.2955049999999L163.54231384615386,565.080615L164.87752615384616,565.203735L166.21273846153846,565.19889L167.54795076923077,564.773385L168.8831630769231,564.744885L170.2183753846154,564.52287L171.55358769230767,564.44649L172.8888,564.36612L174.2240123076923,564.467865L175.55922461538464,564.20025L176.8944369230769,564.141255L178.2296492307692,563.656755L179.57280923076922,563.67813L180.90802153846155,563.2942350000001L182.24323384615383,562.92174L183.57844615384616,562.595985L184.91365846153846,562.383375L186.24887076923076,562.31925L187.58408307692306,562.41786L188.9192953846154,562.34775L190.2545076923077,562.192995L191.58972,561.2057550000001L192.9249323076923,561.20775L194.26014461538463,561.90201L195.5953569230769,562.203255L196.93056923076924,562.61964L198.26578153846154,562.772115L199.60099384615387,562.569765L200.93620615384614,562.630755L202.27141846153847,563.10699L203.60663076923078,563.0745000000001L204.94184307692305,563.336985L206.27705538461538,563.52537L207.6122676923077,562.66638L208.9395323076923,562.78038L210.27474461538463,562.875L211.6099569230769,562.74276L212.94516923076924,562.58088L214.28038153846154,562.488255L215.61559384615384,563.040015L216.95080615384614,563.36463L218.28601846153848,563.557005L219.62123076923078,563.73399L220.95644307692308,563.91924L222.29165538461538,563.875635L223.6268676923077,563.97225L224.96208,564.077985L226.29729230769232,564.250125L227.63250461538462,563.73114L228.9677169230769,563.314755L230.30292923076922,562.875L231.63814153846155,562.915755L232.97335384615386,563.011515L234.30856615384613,562.971615L235.64377846153846,563.01237L236.9789907692308,562.511625L238.31420307692306,562.367985L239.6494153846154,562.2582600000001L240.9846276923077,562.082985L242.31983999999997,562.2479999999999L243.6550523076923,562.174755L244.99026461538463,561.85812L246.32547692307693,561.5925L247.6606892307692,561.6862649999999L249.00384923076925,561.37989L250.33906153846152,561.216015L251.67427384615385,560.525745L253.00948615384615,560.5177649999999L254.34469846153846,560.602125L255.67991076923076,560.839245L257.0151230769231,561.042735L258.3503353846154,561.3075L259.6855476923077,561.187515L261.02076,560.045235L262.3559723076923,560.065755L263.6911846153846,560.924745L265.0263969230769,561.18039L266.36160923076926,561.1946399999999L267.6968215384615,561.28299L269.03203384615387,560.75688L270.36724615384617,560.839245L271.70245846153847,560.944125L273.0376707692308,560.7782550000001L274.36493538461536,560.3955L275.70014769230767,560.14413L277.03536,560.306865L278.3705723076923,560.29974L279.70578461538463,560.60526L281.04099692307693,559.567005L282.37620923076923,559.65849L283.71142153846154,558.892125L285.04663384615384,558.73851L286.38184615384614,558.294765L287.71705846153844,557.56488L289.05227076923074,557.011125L290.3874830769231,557.15961L291.7226953846154,557.258505L293.0579076923077,557.267625L294.39312,556.4280150000001L295.7283323076923,555.96888L297.0635446153846,555.324495L298.3987569230769,554.84199L299.7339692307692,555.19539L301.0691815384615,556.03101L302.4043938461538,556.83414L303.7396061538462,556.22139L305.0748184615385,555.785625L306.41003076923073,555.15549L307.7452430769231,555.81099L309.0804553846154,555.276615L310.4156676923077,554.223255L311.75088,553.553505L313.0860923076923,552.50499L314.42130461538466,552.2251200000001L315.7565169230769,550.803255L317.09172923076926,550.6485L318.42694153846156,550.38801L319.7701015384615,551.92587L321.1053138461539,552.45711L322.4405261538461,550.89474L323.7757384615385,550.152885L325.1109507692308,549.642735L326.4461630769231,550.26261L327.7813753846154,549.34149L329.1165876923077,549.592005L330.4518,551.312265L331.7870123076923,551.737485L333.1222246153846,553.71624L334.45743692307695,556.09086L335.7926492307692,556.16724L337.12786153846156,556.66599L338.46307384615386,557.09862L339.7982861538461,556.54401L341.13349846153847,557.02224L342.46871076923077,556.73724L343.79597538461536,556.3311150000001L345.1311876923077,555.16575L346.46639999999996,554.2523249999999L347.8016123076923,553.74588L349.1368246153846,553.48425L350.4720369230769,552.584505L351.80724923076923,551.4832650000001L353.14246153846153,550.84401L354.47767384615383,550.432755L355.81288615384614,550.794135L357.14809846153844,550.707495L358.4833107692308,550.665885L359.8185230769231,550.988505L361.1537353846154,551.440515L362.48894769230765,551.7976199999999L363.82415999999995,551.938125L365.1593723076923,551.585865L366.4945846153846,551.74974L367.8297969230769,552.86238L369.1650092307693,553.462875L370.5002215384616,552.732135L371.8354338461538,551.63289L373.1706461538461,551.90136L374.5058584615385,552.06039L375.8410707692308,552.3402600000001L377.1762830769231,553.216635L378.5114953846154,554.96739L379.84670769230775,555.724635L381.18192,557.818245L382.5171323076923,559.66875L383.8523446153846,558.1522649999999L385.18755692307695,559.694115L386.52276923076926,558.58062L387.85798153846156,558.6213750000001L389.20114153846157,559.780755L390.5363538461539,560.678505L391.8715661538461,560.3048699999999L393.2067784615384,560.20512L394.5419907692308,559.455L395.8772030769231,560.179755L397.2124153846154,560.83611L398.5476276923077,560.73351L399.88284000000004,560.1093599999999L401.2180523076923,560.73864L402.5532646153846,560.839245L403.8884769230769,560.330235L405.22368923076925,559.82151L406.55890153846155,559.51599L407.89411384615386,560.122755L409.2293261538462,560.54199L410.5645384615384,560.55738L411.89975076923076,560.1065100000001L413.2270153846154,559.467255L414.5622276923077,558.805485L415.89744,558.179625L417.23265230769226,557.785755L418.5678646153846,557.353125L419.9030769230769,557.052735L421.2382892307692,556.97664L422.5735015384615,556.411485L423.9087138461539,556.6702650000001L425.24392615384613,556.83813L426.57913846153843,556.16724L427.91435076923074,555.09849L429.2495630769231,555.285735L430.5847753846154,555.801015L431.9199876923077,555.387765L433.25520000000006,555.27576L434.59041230769225,555.7824899999999L435.9256246153846,554.5264950000001L437.2608369230769,553.714245L438.5960492307692,553.205235L439.93126153846157,552.96213L441.2664738461539,552.831885L442.6016861538462,552.760635L443.9368984615384,552.44286L445.2721107692307,552.62526L446.6073230769231,552.241365L447.9425353846154,550.987365L449.2777476923077,550.7727600000001L450.61296000000004,550.925235L451.94817230769235,550.513125L453.2833846153846,550.42449L454.6185969230769,548.756385L455.9538092307692,548.955885L457.28902153846155,550.1323649999999L458.6321815384615,549.13401L459.96739384615387,548.82849L461.30260615384617,549.0322649999999L462.6378184615385,549.36087L463.9730307692307,549.6735150000001L465.3082430769231,549.896385L466.6434553846154,548.6911200000001L467.9786676923077,548.222865L469.31388,548.05614L470.64909230769234,548.319765L471.98430461538464,548.06013L473.3195169230769,548.247375L474.6547292307692,549.6225000000001L475.98994153846155,549.47601L477.32515384615385,549.20412L478.66036615384616,549.116625L479.99557846153846,547.63776L481.3307907692308,546.82038L482.66600307692306,546.950625L483.9932676923077,546.390885L485.32848,545.700615L486.6636923076923,545.376L487.9989046153847,544.437495L489.33411692307686,542.296005L490.6693292307692,542.267505L492.0045415384615,542.733765L493.3397538461538,543.026745L494.6749661538462,543.683385L496.0101784615385,543.5967449999999L497.3453907692308,542.9309850000001L498.68060307692303,543.62211L500.0158153846154,542.00901L501.3510276923077,541.60089L502.68624,542.5433850000001L504.0214523076923,543.240495L505.35666461538466,543.34737L506.6918769230769,543.01164L508.0270892307692,542.92614L509.3623015384615,543.0999899999999L510.69751384615387,543.316875L512.0327261538462,544.07811L513.3679384615385,544.35L514.7031507692308,543.6600149999999L516.038363076923,542.87199L517.3735753846154,541.707765L518.7087876923076,540.12288L520.044,540.000615L521.3792123076923,540.023985L522.7144246153846,537.9375L524.049636923077,537.5302350000001L525.3848492307692,538.28349L526.7200615384616,537.41025L528.0552738461538,537.29625L529.3984338461538,538.3915049999999L530.7336461538462,537.66276L532.0688584615384,537.5302350000001L533.4040707692308,537.022365L534.7392830769231,536.913495L536.0744953846154,536.846235L537.4097076923076,536.75076L538.74492,535.764375L540.0801323076923,534.529755L541.4153446153846,534.5175L542.7505569230769,534.822735L544.0857692307693,534.711015L545.4209815384615,533.357265L546.7561938461538,532.858515L548.0914061538462,534.534885L549.4266184615385,533.327625L550.7618307692308,533.18712L552.0970430769231,533.71494L553.4243076923077,534.1652399999999L554.75952,533.935245L556.0947323076923,534.924765L557.4299446153847,535.78575L558.7651569230769,533.85288L560.1003692307693,533.86713L561.4355815384615,534.18861L562.7707938461539,534.375L564.1060061538461,535.147065L565.4412184615385,535.5395100000001L566.7764307692307,534.158115L568.1116430769231,534.67539L569.4468553846154,536.07987L570.7820676923077,536.09013L572.1172799999999,535.036485L573.4524923076923,533.357265L574.7877046153847,532.848255L576.1229169230769,529.6653749999999L577.4581292307693,528.82776L578.7933415384615,529.336485L580.1285538461539,531.35799L581.4637661538461,530.815635L582.7989784615385,530.934765L584.1341907692308,530.091735L585.4694030769231,530.4451349999999L586.8046153846154,529.234455L588.1398276923077,526.959015L589.4750399999999,528.344115L590.8102523076923,530.835015L592.1454646153846,527.04651L593.4806769230769,526.567995L594.8158892307692,528.369765L596.1511015384616,528.336135L597.4863138461538,528.4715100000001L598.8294738461539,530.187495L600.1646861538461,531.532125L601.4998984615385,529.93413L602.8351107692307,529.651125L604.1703230769231,529.75401L605.5055353846154,528.920385L606.8407476923077,528.36036L608.17596,526.97013L609.5111723076923,526.46112L610.8463846153846,526.0929L612.1815969230769,523.74336L613.5168092307692,523.17849L614.8520215384616,519.349515L616.1872338461538,516.431115L617.5224461538461,516.77625L618.8576584615384,514.200135L620.1928707692308,514.248015L621.528083076923,508.927635L622.8553476923078,507.94638L624.19056,506.74539L625.5257723076923,505.40076L626.8609846153846,504.45L628.196196923077,506.86737L629.5314092307692,507.09650999999997L630.8666215384616,509.09151L632.2018338461539,511.38376500000004L633.5370461538461,512.23563L634.8722584615384,511.320495L636.2074707692308,510.811485L637.542683076923,510.904965L638.8778953846154,510.09898499999997L640.2131076923077,509.94651L641.54832,510.557265L642.8835323076922,507.46900500000004L644.2187446153846,506.90613L645.553956923077,507.36612L646.8891692307692,507.943245L648.2243815384616,507.098505L649.5595938461539,506.38401L650.8948061538462,504.02364L652.2300184615384,501.306735L653.5652307692308,500.69712L654.9004430769231,500.53324499999997L656.2356553846154,499.057515L657.5708676923077,498.233865L658.90608,499.246755L660.2412923076922,501.11664L661.5765046153846,504.087765L662.9117169230769,503.555385L664.2469292307692,505.327515L665.5821415384615,508.623255L666.9173538461539,509.870985L668.2605138461538,513.5597399999999L669.5957261538462,511.77849000000003L670.9309384615385,509.51388000000003L672.2661507692308,509.47911L673.601363076923,514.062765L674.9365753846154,515.55474L676.2717876923077,516.63888L677.607,513.50901L678.9422123076923,515.861115L680.2774246153847,518.0128649999999L681.6126369230769,517.581375L682.9478492307692,522.91401L684.2830615384615,521.26386L685.6182738461539,520.639995L686.9534861538461,522.900615L688.2886984615385,523.675245L689.6239107692309,525.679365L690.959123076923,524.78361L692.2863876923077,522.96474L693.6216000000001,522.165885L694.9568123076923,524.83776L696.2920246153845,525.418875L697.6272369230769,526.44687L698.9624492307693,527.3754L700.2976615384615,523.86762L701.6328738461539,522.593385L702.9680861538462,523.39224L704.3032984615385,524.364375L705.6385107692307,523.47375L706.9737230769231,523.74564L708.3089353846153,524.290275L709.6441476923077,525.652005L710.97936,528.40425L712.3145723076923,526.915125L713.6497846153846,526.25364L714.9849969230769,525.736365L716.3202092307693,524.74713L717.6554215384616,522.88836L718.9906338461537,521.96838L720.3258461538461,518.674635L721.6610584615385,517.708485L722.9962707692307,518.0690099999999L724.3314830769231,518.879265L725.6666953846153,518.301L727.0019076923077,521.290365L728.33712,519.42162L729.6723323076923,519.885885L731.0075446153846,519.7342649999999L732.342756923077,518.164485L733.6779692307692,515.724885L735.0131815384616,515.1121350000001L736.348393846154,516.16692L737.6915538461539,516.1267349999999L739.0267661538461,516.3396299999999L740.3619784615385,513.16986L741.6971907692308,511.45929L743.0324030769231,511.88337L744.3676153846154,512.73153L745.7028276923078,511.790745L747.03804,512.8697549999999L748.3732523076924,514.337505L749.7084646153845,512.979765L751.0436769230769,513.27588L752.3788892307692,513.5292450000001L753.7141015384615,516.773115L755.0493138461538,514.426995L756.3845261538462,513.89661L757.7197384615384,515.7736199999999L759.0549507692308,515.57013L760.3901630769232,515.07024L761.7174276923076,515.41851L763.05264,514.119765L764.3878523076924,514.6815L765.7230646153846,515.8254900000001L767.058276923077,516.2814900000001L768.3934892307693,511.77963L769.7287015384616,508.98663000000005L771.0639138461539,508.479615L772.3991261538463,509.17986L773.7343384615384,507.42939L775.0695507692307,504.432615L776.404763076923,503.71099499999997L777.7399753846154,502.276875L779.0751876923076,503.915625L780.4104,504.45L781.7456123076923,502.95375L783.0808246153846,501.03000000000003L784.416036923077,500.81624999999997L785.7512492307693,500.26050000000004L787.0864615384615,499.149L788.4216738461539,501.18675L789.7568861538463,500.03962500000006L791.0920984615384,497.702625L792.4273107692308,496.68375000000003L793.762523076923,496.08525000000003L795.0977353846154,496.5555L796.4329476923076,496.57687500000003L797.76816,496.65525L799.1033723076923,497.65275L800.4385846153846,497.05425L801.7737969230769,497.48175L803.1090092307693,494.838375L804.4442215384615,493.0215L805.7794338461539,491.41125L807.1225938461538,488.639625L808.4578061538461,486.231375L809.7930184615384,484.678125L811.1282307692308,485.034375L812.4634430769231,488.169375L813.7986553846154,489.3165L815.1338676923077,488.4045L816.4690800000001,488.22637499999996L817.8042923076923,489.309375L819.1395046153847,489.63L820.474716923077,488.953125L821.8099292307692,484.5L823.1451415384615,484.13662500000004L824.4803538461538,479.1705L825.8155661538461,477.73125L827.1507784615385,474.81L828.4859907692307,477.17550000000006L829.8212030769231,477.681375L831.1484676923077,477.912795L832.4836799999999,478.7715L833.8188923076923,479.875875L835.1541046153847,478.713075L836.4893169230769,478.393875L837.8245292307693,476.92612499999996L839.1597415384616,474.14025000000004L840.4949538461539,476.968875L841.8301661538462,477.73837499999996L843.1653784615385,475.258875L844.5005907692308,475.30162499999994L845.835803076923,476.38462499999997L847.1710153846153,477.24675L848.5062276923077,478.579125L849.8414399999999,477.5175L851.1766523076923,479.55525L852.5118646153846,480.061125L853.8470769230769,477.64575L855.1822892307692,475.258875L856.5175015384616,481.714125L857.8527138461538,482.668875L859.1879261538462,484.50712500000003L860.5231384615386,486.174375L861.8583507692308,489.26662500000003L863.1935630769232,488.397375L864.5287753846153,488.625375L865.8639876923077,486.71587500000004L867.1991999999999,486.858375L868.5344123076923,488.368875L869.8696246153846,490.0005L871.2048369230769,489.66562500000003L872.5400492307692,485.05005L873.8752615384616,483.63075L875.2104738461538,481.77825L876.5536338461537,483.210375L877.8888461538461,484.55699999999996L879.2240584615384,484.69237499999997L880.5592707692307,484.92037500000004L881.894483076923,484.59975000000003L883.2296953846154,489.63L884.5649076923077,492.33750000000003L885.90012,492.031125L887.2353323076924,494.58187499999997L888.5705446153846,497.902125L889.905756923077,497.70975000000004L891.2409692307693,497.659875L892.5761815384616,500.652375L893.9113938461538,501.35062500000004L895.2466061538461,499.54087499999997L896.5818184615384,500.158185L897.9170307692307,496.078125L899.252243076923,496.733625L900.5874553846154,494.11875000000003L901.91472,493.299375L903.2499323076922,491.32574999999997L904.5851446153846,490.064625L905.920356923077,489.922125L907.2555692307692,492.373125L908.5907815384616,494.724375L909.9259938461539,501.67125000000004L911.2612061538462,503.18887500000005L912.5964184615385,502.006125L913.9316307692308,498.229875L915.2668430769231,498.46500000000003L916.6020553846155,497.403375L917.9372676923076,499.377L919.27248,500.96587500000004L920.6076923076922,501.268545L921.9429046153846,500.96587500000004L923.2781169230769,499.24875L924.6133292307692,498.0375L925.9485415384615,495.508125L927.2837538461539,493.299375L928.6189661538461,492.38025000000005L929.9541784615385,491.46112500000004L931.2893907692309,492.1095L932.6246030769231,493.05L933.9598153846155,492.50849999999997L935.2950276923077,487.257375L936.63024,487.22175L937.9654523076922,488.319L939.3006646153846,488.376L940.6358769230769,485.433375L941.9710892307692,485.775375L943.3063015384615,485.6685L944.6415138461539,488.61112499999996L945.9767261538461,490.3995L947.319886153846,491.24024999999995L948.6550984615384,489.90075L949.9903107692307,489.868545L951.325523076923,488.27625L952.6607353846154,486.829875L953.9959476923077,486.28125L955.33116,485.91303L956.6663723076923,485.81100000000004L958.0015846153847,484.549875L959.3367969230769,484.14375L960.6720092307693,482.7615L962.0072215384616,477.025875L963.3424338461539,475.28025L964.6776461538462,472.907625L966.0128584615384,472.0455L967.3480707692307,470.051355L968.683283076923,470.26425L970.0184953846153,469.52325L971.34576,468.255L972.6809723076923,467.04375L974.0161846153845,466.35975L975.3513969230769,467.48607L976.6866092307692,468.1695L978.0218215384615,466.75875L979.3570338461539,463.85175000000004L980.6922461538461,458.55075000000005L982.0274584615385,458.38687500000003L983.3626707692308,459.63374999999996L984.6978830769231,459.241875L986.0330953846154,458.86424999999997L987.3683076923078,464.90625L988.70352,465.14849999999996L990.0387323076923,464.3505L991.3739446153845,466.47375L992.7091569230769,463.60237500000005L994.0443692307692,461.88525L995.3795815384615,460.282125L996.7147938461538,456.17812499999997L998.0500061538462,454.69612500000005L999.3852184615384,454.211625L1000.7204307692308,455.47274999999996L1002.0556430769232,452.48025L1003.3908553846154,452.971875L1004.7260676923078,453.17850000000004L1006.06128,455.64374999999995L1007.3964923076924,459.762855L1008.7317046153845,459.213375L1010.0669169230769,457.425L1011.4021292307692,455.380125L1012.7373415384615,453.435L1014.0725538461538,445.83975000000004L1015.4077661538462,444.429L1016.7509261538462,445.66875L1018.0861384615386,444.95625L1019.4213507692308,445.2555L1020.756563076923,447.00825L1022.0917753846153,445.903875L1023.4269876923076,443.745L1024.7622,447.55687500000005L1026.0974123076924,445.048875L1027.4326246153846,443.631L1028.7678369230769,441.67875L1030.1030492307693,442.14900000000006L1031.4382615384616,448.761L1032.7734738461538,453.2355L1034.1086861538463,445.44075000000004L1035.4438984615385,444.849375L1036.7791107692308,441.31167L1038.114323076923,441.75L1039.4495353846153,439.25625L1040.7768,443.552625L1042.1120123076923,445.205625L1043.4472246153846,445.86084L1044.7824369230768,444.714L1046.117649230769,442.507815L1047.4528615384615,451.0695L1048.7880738461538,438.72187499999995L1050.123286153846,434.361375L1051.4584984615385,434.959875L1052.7937107692308,434.87437500000004L1054.128923076923,434.43975L1055.4641353846155,431.6325L1056.7993476923077,432.57300000000004L1058.13456,435.18075L1059.4697723076924,436.563L1060.8049846153847,435.740775L1062.140196923077,433.31399999999996L1063.4754092307692,432.736875L1064.8106215384614,430.3785L1066.145833846154,421.27275L1067.4810461538461,420.53175000000005L1068.8162584615384,414.710625L1070.1514707692309,413.83424999999994L1071.486683076923,406.930125L1072.8218953846153,406.36012500000004L1074.1571076923078,407.30062499999997L1075.49232,411.148125L1076.8275323076923,408.6615L1078.1627446153848,403.652625L1079.497956923077,408.07012499999996L1080.833169230769,411.1196249999999L1082.1683815384615,410.236125L1083.5035938461538,411.5685L1084.838806153846,420.2895L1086.1819661538461,427.606875L1087.5171784615386,434.12624999999997L1088.8523907692309,439.755L1090.187603076923,438.23025L1091.5228153846156,447.043875L1092.8580276923076,450.05062499999997L1094.1932399999998,457.05449999999996L1095.5284523076923,456.45599999999996L1096.8636646153846,459.897375L1098.1988769230768,457.5105L1099.5340892307693,457.332375L1100.8693015384615,449.58750000000003L1102.2045138461538,444.906375L1103.5397261538462,447.108L1104.8749384615385,446.5095L1106.2101507692307,444.69262499999996L1107.5453630769232,443.35312500000003L1108.8805753846154,436.52737499999995L1110.20784,429.14587500000005L1111.5430523076923,432.57300000000004L1112.8782646153848,429.56624999999997L1114.213476923077,425.46937500000007L1115.5486892307692,424.543125L1116.8839015384615,421.458L1118.2191138461537,416.59162499999996L1119.5543261538462,421.2015L1120.8895384615385,432.86598000000004L1122.2247507692307,436.05L1123.5599630769232,441.32962499999996L1124.8951753846154,433.257L1126.2303876923077,429.787125L1127.5656000000001,426.894375L1128.9008123076924,426.381375L1130.2360246153846,423.8805L1131.5712369230769,424.37212500000004L1132.9064492307693,422.86875000000003L1134.2416615384616,420.567375L1135.5768738461538,412.273875L1136.912086153846,424.98487500000005L1138.2472984615383,418.85025L1139.5825107692308,417.21492L1140.917723076923,420.054375L1142.2529353846153,417.22575L1143.5881476923078,408.67575L1144.92336,410.57099999999997L1146.2585723076922,411.47587500000003L1147.5937846153847,407.39325L1148.928996923077,400.68149999999997L1150.2642092307692,400.32923999999997L1151.5994215384617,394.204875L1152.9346338461537,387.64987499999995L1154.2698461538462,384.4365L1155.613006153846,380.63175L1156.9482184615385,379.05L1158.2834307692308,379.05L1159.618643076923,376.9125L1160.9538553846155,373.84875L1162.2890676923078,368.61187500000005L1163.62428,360.546375L1164.9594923076922,355.8225L1166.2947046153845,347.22262500000005L1167.629916923077,342.89775L1168.9651292307692,339.62737500000003L1170.3003415384615,336.406875L1171.635553846154,338.28075L1172.9707661538462,336.85575L1174.3059784615384,338.68687500000004L1175.641190769231,353.27175L1176.9764030769231,353.4L1178.3116153846154,365.9115L1179.63888,385.4055L1180.9740923076922,385.6905L1182.3093046153847,382.975875L1183.644516923077,376.41374999999994L1184.9797292307692,364.621875L1186.3149415384617,368.35537500000004L1187.650153846154,356.9625L1188.9853661538461,348.87562499999996L1190.3205784615384,342.22229999999996L1191.6557907692306,341.365875L1192.991003076923,338.979L1194.3262153846154,333.628125L1195.6614276923076,317.226375L1196.99664,315.951L1198.3318523076923,304.67925L1199.6670646153846,306.04012499999993L1201.002276923077,295.495125L1202.3374892307693,285.12825000000004L1203.6727015384615,287.13749999999993L1205.007913846154,266.71725L1206.3431261538462,243.92437500000005L1207.6783384615385,239.278875L1209.0135507692307,214.12619999999998L1210.348763076923,202.96275000000003L1211.6839753846155,176.75700000000003L1213.0191876923077,226.575L1214.3544,231.33735000000004L1215.6896123076924,248.349L1217.0248246153847,234.498L1218.360036923077,236.55L1219.6952492307694,212.6385L1221.0304615384616,226.80585000000005L1222.3656738461539,235.75199999999998L1223.700886153846,229.08299999999997L1225.0440461538462,222.3285L1226.3792584615385,225.1785L1227.7144707692307,234.78243L1229.0496830769232,217.227L1230.3848953846154,211.0425L1231.7201076923077,200.69699999999997L1233.05532,186.94575L1234.3905323076924,174.45135000000005L1235.7257446153847,189.20693999999997L1237.060956923077,195.36750000000006L1238.3961692307691,171.42750000000004L1239.7313815384614,156.49349999999998L1241.0665938461539,178.35300000000004L1242.401806153846,177.05055L1243.7370184615384,182.37150000000003L1245.0722307692308,200.29800000000003L1246.407443076923,203.14800000000002L1247.7426553846153,218.85150000000002L1249.0778676923078,207.423L1250.4051323076924,215.91600000000003L1251.7403446153846,216.087L1253.0755569230769,190.83599999999998L1254.4107692307693,185.24999999999997L1255.7459815384616,183.73950000000002L1257.0811938461538,179.35049999999998L1258.4164061538463,187.9005L1259.7516184615386,200.81100000000004L1261.0868307692308,205.2L1262.422043076923,204.28800000000004L1263.7572553846153,210.444L1265.0924676923078,203.88899999999995L1266.42768,192.23249999999996L1267.7628923076923,186.27600000000004L1269.0981046153845,171.00000000000003L1270.433316923077,154.89749999999995L1271.7685292307692,142.5L1273.1037415384615,146.15455500000002L1274.438953846154,142.98449999999994L1275.7741661538462,148.07175000000004L1277.1093784615384,144.08345999999997L1278.444590769231,137.71199999999996L1279.779803076923,140.04899999999995L1281.1150153846154,128.30700000000004L1282.4502276923076,121.809L1283.7854399999999,138.45300000000006L1285.1206523076924,149.71021499999998L1286.4558646153846,154.014L1287.7910769230768,158.98725L1289.1262892307693,157.04924999999994L1290.4615015384616,141.987L1291.7967138461538,133.47975000000002L1293.1319261538463,135.5745L1294.4671384615385,138.02550000000005L1295.8102984615384,111.09299999999998L1297.1455107692307,97.75500000000005L1298.4807230769231,84.64499999999998L1299.8159353846154,58.0545L1301.1511476923076,50.929500000000026L1302.48636,65.97778500000005L1303.8215723076923,53.20949999999996L1305.1567846153846,48.62100000000002L1306.491996923077,65.03699999999999L1307.8272092307693,78.26100000000005L1309.1624215384616,84.5025L1310.4976338461538,67.71628499999998L1311.832846153846,66.54750000000001L1313.1680584615385,75.98099999999998L1314.5032707692308,94.93349999999998L1315.838483076923,88.60649999999998L1317.1736953846155,99.69299999999997L1318.5089076923077,101.23200000000006L1319.8361723076923,70.45200000000003L1321.1713846153846,58.11149999999999L1322.5065969230768,61.30349999999996L1323.8418092307693,81.88049999999997L1325.1770215384615,81.13949999999998L1326.5122338461538,96.33000000000003L1327.8474461538462,95.53200000000005L1329.1826584615385,123.29099999999997L1330.5178707692307,143.1555L1331.8530830769232,143.41199999999995"
                              stroke="#003860" fill="none"/>
                    </g>
                </g>
            </g>
        </g>
    </g>
</svg>